<?xml version="1.0" encoding="UTF-8"?>
<svg id="Layer_1" data-name="Layer 1" xmlns="http://www.w3.org/2000/svg" viewBox="0 0 181.42 181.42">
  <defs>
    <style>
      .cls-1 {
        fill: #fff;
      }

      .cls-1, .cls-2 {
        stroke-width: 0px;
      }

      .cls-2 {
        fill: #f5008a;
      }
    </style>
  </defs>
  <path class="cls-2" d="m80.1,170.13v-10.5h-10.57v-10.6h-10.6v-10.6h-10.6v-10.6h-10.57v-21.16h-10.6v-21.19h-10.57V21.73h21.19v-10.59h42.52v10.48h10.57v.06h10.38v-10.57h53.16v10.51h10.57v63.78h-10.52v21.16h-10.57v21.19h-10.6v10.6h-10.6v10.6h-10.57v10.57h-10.6v10.58h-21.42Zm42.29-95.53v-10.27h-10.26v10.27h10.26Z"/>
  <path class="cls-1" d="m148.96,16.58v10.51h10.57v52.88h-10.52v21.16h-10.57v21.19h-10.6v10.6h-10.6v10.6h-10.57v10.57h-10.6v10.58h-10.52v-10.51h-10.57v-10.6h-10.6v-10.6h-10.6v-10.6h-10.57v-21.16h-10.6v-21.19h-10.57V27.18h10.42v10.5h10.6v10.57h21.23v-10.61h-10.49v-10.57h-10.57v-10.47h31.62v10.48h10.57v10.58h10.68v-10.51h10.6v-10.57h42.26m-95.24,63.45h21.16v-21.18h-10.63v10.57h-10.53v10.61m52.96,10.6h10.65v-10.59h10.51v-21.17h-21.16v31.75m-42.38,10.58h10.57v-10.57h-10.57v10.57m21.2,31.75h21.15v-10.56h-21.15v10.56M159.86,5.68h-64.06v10.5h-10.05V5.7h-53.42v10.59H11.15v74.63h10.57v21.19h10.6v21.16h10.57v10.6h10.6v10.6h10.6v10.6h10.57v10.51h32.32v-10.58h10.6v-10.57h10.57v-10.6h10.6v-10.6h10.6v-21.19h10.57v-21.16h10.52V16.19h-10.57V5.68h0Z"/>
</svg>